#!OML:ASF E:\Mandelcareful walks\Project 1\Capture day 1\Session 1\Subject1.ASF
:FULLY-SPECIFIED
:DEGREES
432
root 6.20239 15.4012 0.466104 -115.162 -85.8343 119.292
lowerback 20.002 -1.19062 -1.48985
upperback 6.90457 -2.4291 -2.19243
thorax -3.75629 -1.38607 -0.922479
lowerneck -31.2703 1.88172 -1.17405
upperneck 24.5832 2.61633 1.72473
head 13.4186 1.2596 1.39956
rclavicle -2.20651e-014 -1.70955e-014
rhumerus -69.8214 18.0643 -101.162
rradius 84.5049
rwrist -12.6359
rhand -29.012 -7.53009
rfingers 7.12502
rthumb -2.36327 -37.4967
lclavicle -2.20651e-014 -1.70955e-014
lhumerus -18.1285 -15.9272 82.7559
lradius 53.5792
lwrist 19.7082
lhand -25.1316 -12.8056
lfingers 7.12502
lthumb 1.38446 17.1697
rfemur -25.2363 -11.1854 2.70266
rtibia 52.7123
rfoot -23.9706 -9.54907
rtoes -14.7639
lfemur -31.8605 12.2418 -11.443
ltibia 57.4315
lfoot -22.7956 0.334585
ltoes -12.0249
433
root 6.20286 15.4001 0.462559 -112.867 -85.7503 117.041
lowerback 19.9258 -1.22918 -1.45023
upperback 6.98196 -2.4747 -2.23725
thorax -3.63802 -1.41062 -0.985854
lowerneck -31.3301 1.77285 -1.47005
upperneck 24.5106 2.53018 1.96247
head 13.3926 1.23065 1.52495
rclavicle -1.92821e-014 9.14409e-015
rhumerus -69.6213 17.905 -101.023
rradius 84.5248
rwrist -12.487
rhand -28.9362 -7.46819
rfingers 7.12502
rthumb -2.2901 -37.4356
lclavicle -1.92821e-014 9.14409e-015
lhumerus -17.8986 -16.0807 82.7269
lradius 53.4511
lwrist 19.7625
lhand -25.3769 -13.1383
lfingers 7.12502
lthumb 1.14756 16.8384
rfemur -25.2534 -11.4399 2.52443
rtibia 52.7796
rfoot -24.0326 -9.36854
rtoes -14.8182
lfemur -31.9053 12.157 -11.6158
ltibia 57.4165
lfoot -22.7371 0.465644
ltoes -12.1838
434
root 6.20679 15.3977 0.457164 -110.229 -85.6788 114.407
lowerback 19.9257 -1.28465 -1.48941
upperback 6.99251 -2.55624 -2.27056
thorax -3.62738 -1.45099 -0.980926
lowerneck -31.136 1.74795 -1.53621
upperneck 24.4365 2.50711 2.01249
head 13.3242 1.2225 1.5465
rclavicle 2.3059e-014 2.62396e-014
rhumerus -69.6343 17.8398 -101.011
rradius 84.5428
rwrist -12.506
rhand -29.0537 -7.35311
rfingers 7.12502
rthumb -2.40359 -37.3193
lclavicle 2.3059e-014 2.62396e-014
lhumerus -17.848 -16.1141 82.7246
lradius 53.2866
lwrist 19.6734
lhand -25.4688 -13.4531
lfingers 7.12502
lthumb 1.05879 16.524
rfemur -25.2364 -11.7124 2.36784
rtibia 52.851
rfoot -24.0392 -9.26515
rtoes -15.0222
lfemur -31.9306 12.0439 -11.7676
ltibia 57.3715
lfoot -22.7079 0.525862
ltoes -12.3715
435
root 6.2121 15.3996 0.449636 -109.151 -85.6904 113.375
lowerback 19.9996 -1.34031 -1.50613
upperback 6.90449 -2.62992 -2.26889
thorax -3.75975 -1.48364 -0.949095
lowerneck -30.8915 1.83959 -1.33036
upperneck 24.443 2.59403 1.82196
head 13.2856 1.25081 1.45062
rclavicle 5.4467e-014 3.53837e-014
rhumerus -69.8401 17.8922 -101.151
rradius 84.5418
rwrist -12.5498
rhand -29.317 -7.27976
rfingers 7.12502
rthumb -2.65781 -37.2429
lclavicle 5.4467e-014 3.53837e-014
lhumerus -18.0214 -15.9747 82.739
lradius 53.2832
lwrist 19.5299
lhand -25.3779 -13.4672
lfingers 7.12502
lthumb 1.14662 16.5094
rfemur -25.3272 -11.8585 2.40288
rtibia 52.9366
rfoot -24.0079 -9.28146
rtoes -15.2348
lfemur -32.0252 12.0012 -11.7745
ltibia 57.3396
lfoot -22.6584 0.515982
ltoes -12.4929
436
root 6.2155 15.3985 0.442132 -109.525 -85.6651 113.778
lowerback 20.1399 -1.34849 -1.56285
upperback 6.78285 -2.65081 -2.25453
thorax -3.95963 -1.48965 -0.890278
lowerneck -30.7752 1.9906 -1.02462
upperneck 24.6049 2.76584 1.48652
head 13.3385 1.30149 1.30256
rclavicle 2.10712e-014 -5.56597e-015
rhumerus -70.0998 17.9176 -101.263
rradius 84.5981
rwrist -12.5197
rhand -29.5503 -7.05523
rfingers 7.12502
rthumb -2.88314 -37.0155
lclavicle 2.10712e-014 -5.56597e-015
lhumerus -18.2139 -15.905 82.7849
lradius 53.2967
lwrist 19.5557
lhand -25.3336 -13.4658
lfingers 7.12502
lthumb 1.18935 16.5107
rfemur -25.4567 -11.899 2.43714
rtibia 53.0498
rfoot -24.0396 -9.27624
rtoes -15.1942
lfemur -32.0474 12.0329 -11.7629
ltibia 57.3361
lfoot -22.6457 0.421214
ltoes -12.1387
437
root 6.21967 15.3904 0.433964 -109.558 -85.6137 113.83
lowerback 20.2074 -1.34687 -1.61048
upperback 6.73788 -2.65833 -2.24601
thorax -4.04034 -1.49195 -0.849575
lowerneck -30.6512 2.07527 -0.797563
upperneck 24.6389 2.8726 1.18581
head 13.3373 1.32384 1.16595
rclavicle -5.56597e-015 -7.95139e-016
rhumerus -70.2205 17.9009 -101.304
rradius 84.7244
rwrist -12.4852
rhand -29.6918 -7.23572
rfingers 7.12502
rthumb -3.01978 -37.1941
lclavicle -5.56597e-015 -7.95139e-016
lhumerus -18.215 -16.0582 82.8148
lradius 53.1997
lwrist 19.6698
lhand -25.5933 -13.4287
lfingers 7.12502
lthumb 0.938546 16.549
rfemur -25.5684 -11.9777 2.42411
rtibia 53.1605
rfoot -24.1431 -9.22913
rtoes -15.1713
lfemur -32.0527 12.0656 -11.7738
ltibia 57.3318
lfoot -22.6492 0.235136
ltoes -11.7195
438
root 6.22327 15.3869 0.424933 -108.302 -85.5784 112.664
lowerback 20.0869 -1.40674 -1.61826
upperback 6.76912 -2.73337 -2.24691
thorax -3.94483 -1.52968 -0.833198
lowerneck -30.6243 2.10408 -0.71377
upperneck 24.5818 2.93168 1.00712
head 13.3128 1.33165 1.09186
rclavicle -9.74045e-015 -2.78299e-014
rhumerus -70.1563 17.9625 -101.327
rradius 84.822
rwrist -12.5388
rhand -29.6711 -7.66276
rfingers 7.12502
rthumb -2.99982 -37.6214
lclavicle -9.74045e-015 -2.78299e-014
lhumerus -18.0852 -16.1438 82.8045
lradius 53.0988
lwrist 19.745
lhand -25.8084 -13.3371
lfingers 7.12502
lthumb 0.730806 16.6414
rfemur -25.7051 -12.1043 2.39609
rtibia 53.2355
rfoot -24.1925 -9.10429
rtoes -15.0261
lfemur -32.1791 12.0452 -11.8295
ltibia 57.2899
lfoot -22.5571 0.224235
ltoes -11.9378
